# xmcd CD database file
#
# Track frame offsets:
#	150
#	15949
#	34589
#	52457
#	69669
#	81550
#	96909
#	125403
#	144431
#	172993
#	205820
#
# Disc length: 3171 seconds
#
# Revision: 1
# Processed by: cddbd v1.5.2PL0 Copyright (c) Steve Scherf et al.
# Submitted via: CDex 1.70beta2
#
DISCID=980c610b
DTITLE=geophon - Sprachurlaub in Cuba
DYEAR=2007
DGENRE=Hörbuch Spanisch
TTITLE0=Havannas Altstadt: Eine Reise in die Vergangenheit
TTITLE1=Zwischen Plaza Armas und der Obispo
TTITLE2=Ein Museum für die Helden der Revolution
TTITLE3=Vedado: Vom Malecon zu Coppelia
TTITLE4=Friedhof Cristobal Colon
TTITLE5=Varadero: Eine Welt zum Entspannen
TTITLE6=Vinales
TTITLE7=Zigarren in Pinar del Rio
TTITLE8=Trinidad: Zucker und Geld
TTITLE9=Santiago de Cuba
TTITLE10=Zu Besuch bei Familie Valera Miranda
EXTD=YEAR: 2007
EXTT0=
EXTT1=
EXTT2=
EXTT3=
EXTT4=
EXTT5=
EXTT6=
EXTT7=
EXTT8=
EXTT9=
EXTT10=
PLAYORDER=
